<svg xmlns:inkscape="http://www.inkscape.org/namespaces/inkscape"
    xmlns:sodipodi="http://sodipodi.sourceforge.net/DTD/sodipodi-0.dtd"
    xmlns="http://www.w3.org/2000/svg"
    xmlns:svg="http://www.w3.org/2000/svg" version="1.1" id="svg2" xml:space="preserve" width="800" height="60" viewBox="0 0 878.26881 92.12533" sodipodi:docname="b99f922fd0db498498da8d53066adba8.ai">
    <defs id="defs6">
        <clipPath clipPathUnits="userSpaceOnUse" id="clipPath16">
            <path d="M 0,162.783 H 752.413 V 0 H 0 Z" id="path14"/>
        </clipPath>
    </defs>
    <sodipodi:namedview id="namedview4" pagecolor="#ffffff" bordercolor="#666666" borderopacity="1.0" inkscape:pageshadow="2" inkscape:pageopacity="0.0" inkscape:pagecheckerboard="0"/>
    <g id="g8" inkscape:groupmode="layer" inkscape:label="b99f922fd0db498498da8d53066adba8" transform="matrix(1.3333333,0,0,-1.3333333,-70.789332,163.4)">
        <g id="g10">
            <g id="g12" clip-path="url(#clipPath16)">
                <g id="g18" transform="translate(60.9182,113.3648)">
                    <path d="m 0,0 h 9.537 l 4.544,-26.433 c 0.847,-5.568 1.744,-11.136 2.591,-16.704 h 0.321 c 1.088,5.568 2.239,11.184 3.392,16.704 L 26.817,0 h 8.064 l 6.432,-26.433 c 1.152,-5.424 2.304,-11.088 3.456,-16.704 h 0.32 c 0.848,5.616 1.68,11.232 2.528,16.704 L 52.161,0 h 8.897 L 51.009,-52.321 H 39.521 l -6.496,27.552 c -0.864,4.064 -1.632,8.064 -2.304,12.033 h -0.32 c -0.72,-3.969 -1.504,-7.969 -2.368,-12.033 L 21.697,-52.321 H 10.4 Z" style="fill-opacity:1;fill-rule:nonzero;stroke:none" id="path20"/>
                </g>
                <g id="g22" transform="translate(138.9797,82.5)">
                    <path d="m 0,0 1.842,6.384 c 1.664,5.537 3.2,11.456 4.64,17.248 h 0.32 C 8.338,17.888 9.874,11.921 11.538,6.384 L 13.365,0 Z M 19.506,-21.456 H 29.33 L 12.274,30.865 H 1.394 L -15.663,-21.456 H -6.19 L -2.1,-7.28 h 17.549 z" style=";fill-opacity:1;fill-rule:nonzero;stroke:none" id="path24"/>
                </g>
                <g id="g26" transform="translate(166.5495,113.3648)">
                    <path d="m 0,0 h 9.824 l 7.361,-26.305 c 1.695,-5.936 2.848,-11.072 4.607,-17.024 h 0.321 c 1.76,5.952 2.96,11.088 4.608,17.024 L 33.985,0 h 9.472 L 27.265,-52.321 H 16.256 Z" style=";fill-opacity:1;fill-rule:nonzero;stroke:none" id="path28"/>
                </g>
                <g id="g30" transform="translate(236.3391,87.0279)">
                    <path d="m 0,0 c 0,17.121 10.72,27.297 23.968,27.297 6.56,0 11.777,-3.136 15.073,-6.624 L 34.08,14.688 c -2.687,2.688 -5.824,4.544 -9.92,4.544 -8.512,0 -14.624,-7.2 -14.624,-18.944 0,-11.936 5.632,-19.168 14.401,-19.168 4.64,0 8.224,2.144 11.167,5.376 l 4.961,-5.824 c -4.24,-4.928 -9.696,-7.616 -16.481,-7.616 C 10.432,-26.944 0,-17.312 0,0" style=";fill-opacity:1;fill-rule:nonzero;stroke:none" id="path32"/>
                </g>
                <g id="g34" transform="translate(316.3874,87.4122)">
                    <path d="m 0,0 c 0,11.744 -5.312,18.848 -13.536,18.848 -8.224,0 -13.536,-7.104 -13.536,-18.848 0,-11.744 5.312,-19.265 13.536,-19.265 C -5.312,-19.265 0,-11.744 0,0 m -36.608,0 c 0,16.928 9.44,26.913 23.072,26.913 C 0.096,26.913 9.537,16.88 9.537,0 c 0,-16.928 -9.441,-27.329 -23.073,-27.329 -13.632,0 -23.072,10.401 -23.072,27.329" style=";fill-opacity:1;fill-rule:nonzero;stroke:none" id="path36"/>
                </g>
                <g id="g38" transform="translate(336.4504,113.3648)">
                    <path d="m 0,0 h 10.496 l 9.248,-25.569 c 1.152,-3.327 2.209,-6.848 3.36,-10.272 h 0.32 c 1.153,3.424 2.144,6.945 3.297,10.272 L 35.777,0 h 10.496 v -52.321 h -8.512 v 23.936 c 0,4.832 0.736,11.792 1.184,16.64 h -0.32 l -4.224,-12.16 -8.609,-23.504 h -5.503 l -8.641,23.504 -4.16,12.16 h -0.32 c 0.448,-4.848 1.184,-11.808 1.184,-16.64 V -52.321 H 0 Z" style=";fill-opacity:1;fill-rule:nonzero;stroke:none" id="path40"/>
                </g>
                <g id="g42" transform="translate(412.0822,87.7002)">
                    <path d="m 0,0 c 7.808,0 11.52,3.104 11.52,9.536 0,6.496 -4.064,8.704 -11.84,8.704 H -6.752 V 0 Z m -16.032,25.665 h 16.48 c 11.616,0 20.224,-4.033 20.224,-16.129 0,-11.664 -8.64,-16.96 -19.904,-16.96 h -7.52 v -19.233 h -9.28 z" style=";fill-opacity:1;fill-rule:nonzero;stroke:none" id="path44"/>
                </g>
                <g id="g46" transform="translate(451.8893,105.9405)">
                    <path d="m 0,0 h 7.392 c 7.168,0 11.072,-2.08 11.072,-8.096 0,-5.952 -3.904,-8.928 -11.072,-8.928 H 0 Z m 17.146,-23.084 c 6.283,2.183 10.471,7.048 10.471,14.988 0,11.68 -8.385,15.52 -19.265,15.52 H -9.28 V -44.897 H 0 v 20.448 h 7.974 l 11.258,-20.448 h 10.433 z" style=";fill-opacity:1;fill-rule:nonzero;stroke:none" id="path48"/>
                </g>
                <g id="g50" transform="translate(489.9689,113.3648)">
                    <path d="M 0,0 H 31.489 V -7.808 H 9.28 v -13.409 h 18.817 v -7.808 H 9.28 v -15.488 h 23.009 v -7.808 H 0 Z" style=";fill-opacity:1;fill-rule:nonzero;stroke:none" id="path52"/>
                </g>
                <g id="g54" transform="translate(529.424,67.7476)">
                    <path d="M 0,0 5.408,6.368 C 9.152,2.8 14.176,0.4 19.04,0.4 c 5.888,0 9.12,2.672 9.12,6.752 0,4.304 -3.376,5.681 -8.128,7.696 L 12.88,17.953 C 7.728,20.097 2.304,24.177 2.304,31.825 c 0,8.336 7.36,14.752 17.568,14.752 6.112,0 12.033,-2.528 16.128,-6.672 l -4.768,-5.888 c -3.328,2.832 -6.879,4.496 -11.36,4.496 -4.96,0 -8.192,-2.32 -8.192,-6.144 0,-4.112 3.984,-5.632 8.32,-7.409 l 7.057,-2.959 c 6.224,-2.592 10.576,-6.528 10.576,-14.113 0,-8.48 -7.04,-15.552 -18.785,-15.552 C 11.776,-7.664 4.96,-4.88 0,0" style=";fill-opacity:1;fill-rule:nonzero;stroke:none" id="path56"/>
                </g>
                <g id="g58" transform="translate(571.7448,67.7476)">
                    <path d="M 0,0 5.408,6.368 C 9.152,2.8 14.176,0.4 19.04,0.4 c 5.888,0 9.121,2.672 9.121,6.752 0,4.304 -3.377,5.681 -8.129,7.696 L 12.88,17.953 C 7.728,20.097 2.304,24.177 2.304,31.825 c 0,8.336 7.36,14.752 17.568,14.752 6.112,0 12.033,-2.528 16.128,-6.672 l -4.768,-5.888 c -3.328,2.832 -6.879,4.496 -11.36,4.496 -4.96,0 -8.192,-2.32 -8.192,-6.144 0,-4.112 3.984,-5.632 8.32,-7.409 l 7.057,-2.959 C 33.281,19.409 37.633,15.473 37.633,7.888 37.633,-0.592 30.592,-7.664 18.848,-7.664 11.776,-7.664 4.96,-4.88 0,0" style=";fill-opacity:1;fill-rule:nonzero;stroke:none" id="path60"/>
                </g>
                <g id="g62" transform="translate(652.7853,87.4122)">
                    <path d="m 0,0 c 0,11.744 -5.312,18.848 -13.536,18.848 -8.224,0 -13.536,-7.104 -13.536,-18.848 0,-11.744 5.312,-19.265 13.536,-19.265 C -5.312,-19.265 0,-11.744 0,0 m -36.608,0 c 0,16.928 9.44,26.913 23.072,26.913 C 0.096,26.913 9.537,16.88 9.537,0 c 0,-16.928 -9.441,-27.329 -23.073,-27.329 -13.632,0 -23.072,10.401 -23.072,27.329" style=";fill-opacity:1;fill-rule:nonzero;stroke:none" id="path64"/>
                </g>
                <g id="g66" transform="translate(682.1286,105.9405)">
                    <path d="m 0,0 h 7.392 c 7.168,0 11.072,-2.08 11.072,-8.096 0,-5.952 -3.904,-8.928 -11.072,-8.928 H 0 Z m 29.665,-44.897 -12.519,21.813 c 6.283,2.183 10.471,7.048 10.471,14.988 0,11.68 -8.385,15.52 -19.265,15.52 H -9.28 V -44.897 H 0 v 20.448 h 7.974 l 11.258,-20.448 z" style=";fill-opacity:1;fill-rule:nonzero;stroke:none" id="path68"/>
                </g>
                <path d="M 219.461,53.956 H 53.592 v 68.094 h 165.869 z" style="fill:none;stroke-width:1;stroke-linecap:butt;stroke-linejoin:miter;stroke-miterlimit:10;stroke-dasharray:none;stroke-opacity:1" id="path70"/>
            </g>
        </g>
    </g>
</svg>